<mxfile host="www.draw.io" modified="2019-12-17T12:22:31.883Z" agent="Mozilla/5.0 (iPad; CPU OS 13_3 like Mac OS X) AppleWebKit/605.1.15 (KHTML, like Gecko) Version/13.0 YaBrowser/19.12.1.226.11 Mobile/15E148 Safari/604.1" etag="Q0_lZDAmeGRZVwxbBLBO" version="12.4.2" type="github" pages="1">
  <diagram id="ino8X07yagJUm5cUdguc" name="Page-1">
    <mxGraphModel dx="402" dy="375" grid="1" gridSize="10" guides="1" tooltips="1" connect="1" arrows="1" fold="1" page="1" pageScale="1" pageWidth="827" pageHeight="1169" math="0" shadow="0">
      <root>
        <mxCell id="0"/>
        <mxCell id="1" parent="0"/>
        <mxCell id="_YIfg3i4x5maGK3U4gLa-12" style="edgeStyle=orthogonalEdgeStyle;rounded=0;orthogonalLoop=1;jettySize=auto;html=1;exitX=0.5;exitY=1;exitDx=0;exitDy=0;entryX=0.5;entryY=0;entryDx=0;entryDy=0;" parent="1" source="_YIfg3i4x5maGK3U4gLa-1" target="_YIfg3i4x5maGK3U4gLa-3" edge="1">
          <mxGeometry relative="1" as="geometry"/>
        </mxCell>
        <mxCell id="_YIfg3i4x5maGK3U4gLa-1" value="Начало" style="rounded=1;whiteSpace=wrap;html=1;imageHeight=24;arcSize=45;" parent="1" vertex="1">
          <mxGeometry x="360" y="90" width="120" height="20" as="geometry"/>
        </mxCell>
        <mxCell id="_YIfg3i4x5maGK3U4gLa-2" value="Конец" style="rounded=1;whiteSpace=wrap;html=1;arcSize=45;" parent="1" vertex="1">
          <mxGeometry x="360" y="591" width="120" height="19" as="geometry"/>
        </mxCell>
        <mxCell id="_YIfg3i4x5maGK3U4gLa-11" style="edgeStyle=orthogonalEdgeStyle;rounded=0;orthogonalLoop=1;jettySize=auto;html=1;exitX=0.5;exitY=1;exitDx=0;exitDy=0;entryX=0.5;entryY=0;entryDx=0;entryDy=0;" parent="1" source="_YIfg3i4x5maGK3U4gLa-3" target="_YIfg3i4x5maGK3U4gLa-9" edge="1">
          <mxGeometry relative="1" as="geometry"/>
        </mxCell>
        <mxCell id="_YIfg3i4x5maGK3U4gLa-3" value="" style="rounded=0;whiteSpace=wrap;html=1;" parent="1" vertex="1">
          <mxGeometry x="360" y="170" width="120" height="60" as="geometry"/>
        </mxCell>
        <mxCell id="_YIfg3i4x5maGK3U4gLa-4" value="" style="endArrow=none;html=1;exitX=0.583;exitY=1;exitDx=0;exitDy=0;exitPerimeter=0;" parent="1" edge="1">
          <mxGeometry width="50" height="50" relative="1" as="geometry">
            <mxPoint x="438.96000000000004" y="230" as="sourcePoint"/>
            <mxPoint x="439" y="170" as="targetPoint"/>
          </mxGeometry>
        </mxCell>
        <mxCell id="_YIfg3i4x5maGK3U4gLa-5" value="" style="endArrow=none;html=1;exitX=0.583;exitY=1;exitDx=0;exitDy=0;exitPerimeter=0;" parent="1" edge="1">
          <mxGeometry width="50" height="50" relative="1" as="geometry">
            <mxPoint x="458.96000000000004" y="230" as="sourcePoint"/>
            <mxPoint x="459" y="170" as="targetPoint"/>
          </mxGeometry>
        </mxCell>
        <mxCell id="_YIfg3i4x5maGK3U4gLa-6" value="RB := B;&lt;br&gt;RR := 0;&lt;br&gt;TPR := 0;" style="text;html=1;strokeColor=none;fillColor=none;align=center;verticalAlign=middle;whiteSpace=wrap;rounded=0;" parent="1" vertex="1">
          <mxGeometry x="360" y="173" width="73" height="48" as="geometry"/>
        </mxCell>
        <mxCell id="_YIfg3i4x5maGK3U4gLa-7" value="У2&lt;br&gt;У8&lt;br&gt;У9" style="text;html=1;strokeColor=none;fillColor=none;align=center;verticalAlign=middle;whiteSpace=wrap;rounded=0;fontSize=9;" parent="1" vertex="1">
          <mxGeometry x="444" y="189" width="10" height="20" as="geometry"/>
        </mxCell>
        <mxCell id="_YIfg3i4x5maGK3U4gLa-8" value="F3" style="text;html=1;strokeColor=none;fillColor=none;align=center;verticalAlign=middle;whiteSpace=wrap;rounded=0;fontSize=9;" parent="1" vertex="1">
          <mxGeometry x="464" y="189" width="10" height="20" as="geometry"/>
        </mxCell>
        <mxCell id="_YIfg3i4x5maGK3U4gLa-14" style="edgeStyle=orthogonalEdgeStyle;rounded=0;orthogonalLoop=1;jettySize=auto;html=1;exitX=0;exitY=0.5;exitDx=0;exitDy=0;entryX=0.5;entryY=0;entryDx=0;entryDy=0;" parent="1" source="_YIfg3i4x5maGK3U4gLa-9" target="_YIfg3i4x5maGK3U4gLa-24" edge="1">
          <mxGeometry relative="1" as="geometry">
            <Array as="points">
              <mxPoint x="280" y="300"/>
            </Array>
            <mxPoint x="420" y="370" as="targetPoint"/>
          </mxGeometry>
        </mxCell>
        <mxCell id="_YIfg3i4x5maGK3U4gLa-36" value="1" style="text;html=1;align=center;verticalAlign=middle;resizable=0;points=[];;labelBackgroundColor=#ffffff;" parent="_YIfg3i4x5maGK3U4gLa-14" vertex="1" connectable="0">
          <mxGeometry x="-0.5118" y="1" relative="1" as="geometry">
            <mxPoint x="17" y="-1" as="offset"/>
          </mxGeometry>
        </mxCell>
        <mxCell id="_YIfg3i4x5maGK3U4gLa-22" style="edgeStyle=orthogonalEdgeStyle;rounded=0;orthogonalLoop=1;jettySize=auto;html=1;exitX=1;exitY=0.5;exitDx=0;exitDy=0;jumpSize=6;entryX=0.5;entryY=0;entryDx=0;entryDy=0;" parent="1" source="_YIfg3i4x5maGK3U4gLa-9" target="_YIfg3i4x5maGK3U4gLa-17" edge="1">
          <mxGeometry relative="1" as="geometry">
            <Array as="points">
              <mxPoint x="560" y="300"/>
            </Array>
            <mxPoint x="580" y="420" as="targetPoint"/>
          </mxGeometry>
        </mxCell>
        <mxCell id="_YIfg3i4x5maGK3U4gLa-35" value="0" style="text;html=1;align=center;verticalAlign=middle;resizable=0;points=[];;labelBackgroundColor=#ffffff;" parent="_YIfg3i4x5maGK3U4gLa-22" vertex="1" connectable="0">
          <mxGeometry x="0.1497" relative="1" as="geometry">
            <mxPoint x="-60" y="-6" as="offset"/>
          </mxGeometry>
        </mxCell>
        <mxCell id="_YIfg3i4x5maGK3U4gLa-9" value="F3" style="rhombus;whiteSpace=wrap;html=1;" parent="1" vertex="1">
          <mxGeometry x="360" y="270" width="120" height="60" as="geometry"/>
        </mxCell>
        <mxCell id="mm2yy1tvn-SzPlEQDEvn-9" style="edgeStyle=orthogonalEdgeStyle;rounded=0;orthogonalLoop=1;jettySize=auto;html=1;entryX=0.5;entryY=0;entryDx=0;entryDy=0;fontSize=11;" parent="1" source="_YIfg3i4x5maGK3U4gLa-17" target="mm2yy1tvn-SzPlEQDEvn-2" edge="1">
          <mxGeometry relative="1" as="geometry">
            <Array as="points">
              <mxPoint x="560" y="450"/>
              <mxPoint x="420" y="450"/>
            </Array>
          </mxGeometry>
        </mxCell>
        <mxCell id="_YIfg3i4x5maGK3U4gLa-17" value="" style="rounded=0;whiteSpace=wrap;html=1;" parent="1" vertex="1">
          <mxGeometry x="500" y="370" width="120" height="60" as="geometry"/>
        </mxCell>
        <mxCell id="_YIfg3i4x5maGK3U4gLa-18" value="" style="endArrow=none;html=1;" parent="1" edge="1">
          <mxGeometry width="50" height="50" relative="1" as="geometry">
            <mxPoint x="579" y="370" as="sourcePoint"/>
            <mxPoint x="579" y="430" as="targetPoint"/>
          </mxGeometry>
        </mxCell>
        <mxCell id="_YIfg3i4x5maGK3U4gLa-19" value="" style="endArrow=none;html=1;" parent="1" edge="1">
          <mxGeometry width="50" height="50" relative="1" as="geometry">
            <mxPoint x="600" y="430" as="sourcePoint"/>
            <mxPoint x="600" y="370" as="targetPoint"/>
          </mxGeometry>
        </mxCell>
        <mxCell id="_YIfg3i4x5maGK3U4gLa-21" value="У6&lt;br&gt;У4" style="text;html=1;strokeColor=none;fillColor=none;align=center;verticalAlign=middle;whiteSpace=wrap;rounded=0;fontSize=9;" parent="1" vertex="1">
          <mxGeometry x="583" y="390.5" width="15" height="20" as="geometry"/>
        </mxCell>
        <mxCell id="mm2yy1tvn-SzPlEQDEvn-10" style="edgeStyle=orthogonalEdgeStyle;rounded=0;orthogonalLoop=1;jettySize=auto;html=1;fontSize=11;" parent="1" source="_YIfg3i4x5maGK3U4gLa-24" edge="1">
          <mxGeometry relative="1" as="geometry">
            <mxPoint x="420" y="471" as="targetPoint"/>
            <Array as="points">
              <mxPoint x="280" y="451"/>
              <mxPoint x="420" y="451"/>
            </Array>
          </mxGeometry>
        </mxCell>
        <mxCell id="_YIfg3i4x5maGK3U4gLa-24" value="" style="rounded=0;whiteSpace=wrap;html=1;" parent="1" vertex="1">
          <mxGeometry x="220" y="370" width="120" height="60" as="geometry"/>
        </mxCell>
        <mxCell id="_YIfg3i4x5maGK3U4gLa-25" value="" style="endArrow=none;html=1;exitX=0.583;exitY=1;exitDx=0;exitDy=0;exitPerimeter=0;" parent="1" edge="1">
          <mxGeometry width="50" height="50" relative="1" as="geometry">
            <mxPoint x="299.46000000000004" y="430" as="sourcePoint"/>
            <mxPoint x="299.5" y="370" as="targetPoint"/>
          </mxGeometry>
        </mxCell>
        <mxCell id="_YIfg3i4x5maGK3U4gLa-26" value="" style="endArrow=none;html=1;exitX=0.583;exitY=1;exitDx=0;exitDy=0;exitPerimeter=0;" parent="1" edge="1">
          <mxGeometry width="50" height="50" relative="1" as="geometry">
            <mxPoint x="319.46000000000004" y="430" as="sourcePoint"/>
            <mxPoint x="319.5" y="370" as="targetPoint"/>
          </mxGeometry>
        </mxCell>
        <mxCell id="_YIfg3i4x5maGK3U4gLa-27" value="RR := not RB + 1" style="text;html=1;strokeColor=none;fillColor=none;align=center;verticalAlign=middle;whiteSpace=wrap;rounded=0;fontSize=9;" parent="1" vertex="1">
          <mxGeometry x="223" y="378" width="73" height="45" as="geometry"/>
        </mxCell>
        <mxCell id="_YIfg3i4x5maGK3U4gLa-28" value="У6&lt;br&gt;У4&lt;br&gt;У5" style="text;html=1;strokeColor=none;fillColor=none;align=center;verticalAlign=middle;whiteSpace=wrap;rounded=0;fontSize=9;" parent="1" vertex="1">
          <mxGeometry x="305" y="390" width="10" height="20" as="geometry"/>
        </mxCell>
        <mxCell id="mm2yy1tvn-SzPlEQDEvn-11" style="edgeStyle=orthogonalEdgeStyle;rounded=0;orthogonalLoop=1;jettySize=auto;html=1;entryX=0.5;entryY=0;entryDx=0;entryDy=0;fontSize=11;" parent="1" source="mm2yy1tvn-SzPlEQDEvn-2" target="_YIfg3i4x5maGK3U4gLa-2" edge="1">
          <mxGeometry relative="1" as="geometry"/>
        </mxCell>
        <mxCell id="mm2yy1tvn-SzPlEQDEvn-2" value="" style="rounded=0;whiteSpace=wrap;html=1;" parent="1" vertex="1">
          <mxGeometry x="360" y="470.5" width="120" height="60" as="geometry"/>
        </mxCell>
        <mxCell id="mm2yy1tvn-SzPlEQDEvn-3" value="" style="endArrow=none;html=1;exitX=0.583;exitY=1;exitDx=0;exitDy=0;exitPerimeter=0;" parent="1" edge="1">
          <mxGeometry width="50" height="50" relative="1" as="geometry">
            <mxPoint x="439.46000000000004" y="530.5" as="sourcePoint"/>
            <mxPoint x="439.5" y="470.5" as="targetPoint"/>
          </mxGeometry>
        </mxCell>
        <mxCell id="mm2yy1tvn-SzPlEQDEvn-4" value="" style="endArrow=none;html=1;exitX=0.583;exitY=1;exitDx=0;exitDy=0;exitPerimeter=0;" parent="1" edge="1">
          <mxGeometry width="50" height="50" relative="1" as="geometry">
            <mxPoint x="459.46000000000004" y="530.5" as="sourcePoint"/>
            <mxPoint x="459.5" y="470.5" as="targetPoint"/>
          </mxGeometry>
        </mxCell>
        <mxCell id="mm2yy1tvn-SzPlEQDEvn-5" value="TPR := RR0" style="text;html=1;strokeColor=none;fillColor=none;align=center;verticalAlign=middle;whiteSpace=wrap;rounded=0;fontSize=9;" parent="1" vertex="1">
          <mxGeometry x="363" y="478.5" width="73" height="45" as="geometry"/>
        </mxCell>
        <mxCell id="mm2yy1tvn-SzPlEQDEvn-6" value="У10" style="text;html=1;strokeColor=none;fillColor=none;align=center;verticalAlign=middle;whiteSpace=wrap;rounded=0;fontSize=9;" parent="1" vertex="1">
          <mxGeometry x="445" y="490.5" width="10" height="20" as="geometry"/>
        </mxCell>
        <mxCell id="_YIfg3i4x5maGK3U4gLa-20" value="RR := RB" style="text;html=1;strokeColor=none;fillColor=none;align=center;verticalAlign=middle;whiteSpace=wrap;rounded=0;fontSize=9;" parent="1" vertex="1">
          <mxGeometry x="500" y="377.5" width="73" height="45" as="geometry"/>
        </mxCell>
      </root>
    </mxGraphModel>
  </diagram>
</mxfile>
